<svg xmlns="http://www.w3.org/2000/svg" width="86" height="19" viewBox="0 0 86 19" fill="none"><path d="M4.71649 17.058L5.97646 11.611L1.75073 7.94746L7.33334 7.46286L9.50436 2.32608L11.6754 7.46286L17.258 7.94746L13.0323 11.611L14.2922 17.058L9.50436 14.1697L4.71649 17.058Z" fill="#FFC621"></path><path d="M21.4643 17.058L22.7243 11.611L18.4985 7.94746L24.0811 7.46286L26.2522 2.32608L28.4232 7.46286L34.0058 7.94746L29.7801 11.611L31.04 17.058L26.2522 14.1697L21.4643 17.058Z" fill="#FFC621"></path><path d="M38.2122 17.058L39.4721 11.611L35.2464 7.94746L40.829 7.46286L43 2.32608L45.171 7.46286L50.7536 7.94746L46.5279 11.611L47.7879 17.058L43 14.1697L38.2122 17.058Z" fill="#FFC621"></path><path d="M54.96 17.058L56.2199 11.611L51.9942 7.94746L57.5768 7.46286L59.7478 2.32608L61.9188 7.46286L67.5014 7.94746L63.2757 11.611L64.5357 17.058L59.7478 14.1697L54.96 17.058Z" fill="#FFC621"></path><path d="M76.4957 5.31123V12.8129L79.539 14.6543L78.7249 11.204L81.3999 8.87789L77.872 8.56775L76.4957 5.31123ZM71.7078 17.058L72.9678 11.611L68.7421 7.94746L74.3247 7.46286L76.4957 2.32608L78.6667 7.46286L84.2493 7.94746L80.0236 11.611L81.2836 17.058L76.4957 14.1697L71.7078 17.058Z" fill="#FECD3E"></path></svg>